<svg xmlns="http://www.w3.org/2000/svg" width="45" height="54" viewBox="0 0 45 54"><path fill="#666" fill-rule="evenodd" d="M37.585 28.89c.072 8.12 7.326 10.805 7.415 10.834-.043.19-1.136 3.875-3.857 7.617-2.272 3.295-4.653 6.514-8.434 6.575-3.673.082-4.91-2.096-9.122-2.096-4.25 0-5.567 2.034-9.09 2.177-3.6.128-6.352-3.517-8.707-6.782C1.085 40.548-2.58 28.43 2.334 20.18c2.38-4.044 6.72-6.648 11.36-6.718 3.606-.07 6.95 2.36 9.167 2.36 2.172 0 6.31-2.908 10.574-2.473 1.784.05 6.86.682 10.137 5.313-.263.154-6.048 3.45-5.985 10.226zM30.84 8.69c-1.99 2.288-5.174 4.037-8.275 3.812-.406-3.086 1.165-6.368 2.924-8.37C27.476 1.86 30.93.12 33.69 0c.362 3.207-.943 6.368-2.85 8.69z"/></svg>