<svg xmlns="http://www.w3.org/2000/svg" width="139" height="44" viewBox="0 0 139 44" xmlns:xlink="http://www.w3.org/1999/xlink"><defs><path id="a" d="M33.244.405H0v33.95h33.244V.405z"/><path id="c" d="M.38 31.88h20.848V.192H.378z"/><path id="e" d="M0 43.903h138.55V.54H0z"/></defs><g fill="none" fill-rule="evenodd"><g transform="translate(0 .136)"><mask id="b" fill="#fff"><use xlink:href="#a"/></mask><path fill="#4285F4" d="M17.305 15.852v4.64H28.45c-.342 2.603-1.213 4.508-2.54 5.847-1.63 1.62-4.17 3.394-8.605 3.394-6.86 0-12.225-5.507-12.225-12.336 0-6.827 5.364-12.335 12.225-12.335 3.696 0 6.406 1.453 8.396 3.32l3.28-3.263C26.212 2.44 22.497.404 17.305.404 7.905.404 0 8.024 0 17.38c0 9.356 7.904 16.975 17.305 16.975 5.08 0 8.907-1.66 11.902-4.753 3.07-3.055 4.037-7.375 4.037-10.845 0-1.075-.076-2.075-.246-2.905H17.305z" mask="url(#b)"/></g><path fill="#EA4335" d="M47.175 29.814c-3.336 0-6.217-2.736-6.217-6.64 0-3.942 2.88-6.64 6.217-6.64 3.336 0 6.217 2.698 6.217 6.64 0 3.904-2.88 6.64-6.217 6.64m0-17.598c-6.084 0-11.05 4.602-11.05 10.958 0 6.3 4.966 10.96 11.05 10.96 6.084 0 11.05-4.64 11.05-10.96 0-6.356-4.966-10.958-11.05-10.958"/><g transform="translate(84.703 12.023)"><mask id="d" fill="#fff"><use xlink:href="#c"/></mask><path fill="#4285F4" d="M11.088 17.79c-3.336 0-5.876-2.83-5.876-6.64 0-3.866 2.54-6.638 5.876-6.638 3.298 0 5.875 2.83 5.875 6.676.02 3.83-2.577 6.602-5.875 6.602zM16.64 2.645h-.17C15.39 1.362 13.306.192 10.67.192 5.175.192.38 4.965.38 11.152.38 17.3 5.173 22.11 10.67 22.11c2.635 0 4.72-1.17 5.8-2.49h.17v1.528c0 4.187-2.254 6.43-5.874 6.43-2.957 0-4.796-2.11-5.554-3.902L1.005 25.41c1.213 2.905 4.415 6.47 9.76 6.47 5.668 0 10.463-3.32 10.463-11.41V.757H16.64v1.887z" mask="url(#d)"/></g><path fill="#FBBC05" d="M71.815 29.814c-3.336 0-6.217-2.736-6.217-6.64 0-3.942 2.88-6.64 6.217-6.64 3.336 0 6.216 2.698 6.216 6.64 0 3.904-2.88 6.64-6.215 6.64m0-17.598c-6.084 0-11.05 4.602-11.05 10.958 0 6.3 4.966 10.96 11.05 10.96 6.084 0 11.05-4.64 11.05-10.96 0-6.356-4.966-10.958-11.05-10.958"/><mask id="f" fill="#fff"><use xlink:href="#e"/></mask><path fill="#34A853" d="M109.722 34.133h4.758V.993h-4.758" mask="url(#f)"/><path fill="#EA4335" d="M128.827 16.328c1.952 0 3.62 1 4.17 2.414l-9.95 4.093c0-4.603 3.278-6.507 5.78-6.507m.34 13.486c-2.463 0-4.206-1.114-5.344-3.32l14.727-6.055-.493-1.245c-.91-2.452-3.715-6.98-9.42-6.98-5.667 0-10.386 4.433-10.386 10.96 0 6.148 4.663 10.958 10.918 10.958 5.04 0 7.96-3.075 9.173-4.848l-3.752-2.49c-1.25 1.81-2.956 3.02-5.42 3.02" mask="url(#f)"/></g></svg>