<svg xmlns="http://www.w3.org/2000/svg" width="172" height="40" viewBox="0 0 172 40" xmlns:xlink="http://www.w3.org/1999/xlink"><defs><path id="a" d="M6.598 7.344V.53H.41v6.814h6.188z"/><path id="c" d="M0 39.024h171.843V.406H0z"/></defs><g fill="none" fill-rule="evenodd"><path fill="#010202" d="M37.444 8.342h7.71v-7.24h-7.71M49.994 37.306h7.66v-24.74h-7.66M0 37.307h7.66V1.102H0M24.996 37.307h7.66V1.102h-7.66M12.498 25.842h7.66V1.102h-7.66M49.943 8.342h20.21v-7.24h-20.21"/><g transform="translate(0 .57)"><path fill="#010202" d="M94.934.418v8.717h-2.09l.136-6.21.024-.877-.074.31c-.112.493-.124.555-.223.926l-1.646 5.85h-1.88L87.597 3.53l-.384-1.556c.038.692.038.84.074 1.667l.11 5.495h-2.116V.418h3.195l1.337 4.89.31 1.394c.123-.604.134-.666.234-1.073L91.754.417h3.18zM99.018 6.456c-.322.124-.817.308-.817.803 0 .308.273.653.718.653.237 0 .46-.086.656-.21.632-.395.656-.988.67-1.654l-1.226.406zm-2.413-1.938c.036-.445.1-.976.68-1.433.594-.47 1.362-.568 2.117-.568.79 0 2.71.186 2.71 1.852V8.12c0 .692.036.79.186 1.014h-1.87v-.593c-.482.358-1.026.765-1.98.765-1.484 0-2.115-1.062-2.115-1.962 0-1.038.83-1.63 1.36-1.852.52-.223 1.746-.445 2.55-.594v-.346c-.024-.296-.05-.79-.73-.79-.84 0-.953.52-1.003.754h-1.905zM104.177 6.962c.52.507 1.163.89 1.883.89.457 0 1.15-.15 1.15-.63 0-.223-.137-.31-.247-.37-.285-.15-.73-.186-1.1-.248-.286-.05-.584-.11-.868-.197-.396-.112-.792-.272-1.078-.556-.283-.282-.482-.727-.482-1.21 0-1.06.916-2.16 2.722-2.16 1.524 0 2.44.654 2.885.964l-1.177 1.086c-.606-.47-1.175-.64-1.62-.64-.743 0-.916.294-.916.48 0 .37.408.443 1.026.555 1.3.234 2.81.58 2.81 2.112 0 1.518-1.535 2.258-3.058 2.258-1.793 0-2.722-.863-3.13-1.246l1.2-1.088zM110.625 6.962c.52.507 1.163.89 1.88.89.46 0 1.152-.15 1.152-.63 0-.223-.136-.31-.248-.37-.284-.15-.73-.186-1.102-.248-.284-.05-.582-.11-.866-.197-.396-.112-.793-.272-1.078-.556-.283-.282-.482-.727-.482-1.21 0-1.06.916-2.16 2.722-2.16 1.523 0 2.44.654 2.885.964l-1.177 1.086c-.607-.47-1.177-.64-1.62-.64-.744 0-.917.294-.917.48 0 .37.41.443 1.027.555 1.3.234 2.81.58 2.81 2.112 0 1.518-1.535 2.258-3.057 2.258-1.795 0-2.724-.863-3.132-1.246l1.2-1.088zM119.127 6.456c-.323.124-.818.308-.818.803 0 .308.27.653.717.653.236 0 .458-.086.656-.21.63-.395.656-.988.668-1.654l-1.223.406zm-2.415-1.938c.038-.445.1-.976.683-1.433.59-.47 1.36-.568 2.115-.568.792 0 2.71.186 2.71 1.852V8.12c0 .692.036.79.186 1.014h-1.87v-.593c-.48.358-1.026.765-1.98.765-1.484 0-2.115-1.062-2.115-1.962 0-1.038.83-1.63 1.363-1.852.52-.223 1.744-.445 2.548-.594v-.346c-.023-.296-.048-.79-.73-.79-.84 0-.953.52-1.002.754h-1.906zM129.595 7.616c-.236.37-.495.78-1.015 1.15-.494.345-1.126.58-1.856.58-1.238 0-3.205-.74-3.205-3.372 0-1.876 1.087-3.457 3.24-3.457.72 0 1.944.198 2.76 1.543l-1.41.803c-.112-.235-.235-.457-.544-.68-.187-.123-.422-.22-.72-.22-1.024 0-1.372 1.172-1.372 1.95 0 .852.42 1.926 1.436 1.926.1 0 .57 0 .965-.446.16-.185.223-.333.284-.518l1.435.74zM131.8.406V3.37c.272-.272.83-.853 1.856-.853.47 0 .99.136 1.374.458.57.48.668 1.086.668 1.925v4.236h-1.892V5.764c0-.518-.014-.765-.088-.987-.186-.58-.693-.642-.89-.642-.334 0-.62.16-.78.37-.248.333-.248.865-.248 1.42v3.21h-1.905V.406h1.905zM141.23 2.69h1.905v6.445h-1.905v-.618c-.185.21-.298.334-.645.508-.383.197-.803.295-1.224.295-.42 0-1.2-.06-1.645-.68-.334-.468-.395-.85-.395-1.9V2.69h1.917v4c0 .284 0 .57.15.766.11.15.37.32.754.32.11 0 .372 0 .657-.16.408-.246.42-.568.433-.913V2.69zM145.176 6.962c.52.507 1.164.89 1.88.89.46 0 1.152-.15 1.152-.63 0-.223-.136-.31-.247-.37-.284-.15-.728-.186-1.1-.248-.285-.05-.582-.11-.866-.197-.396-.112-.792-.272-1.077-.556-.284-.282-.483-.727-.483-1.21 0-1.06.916-2.16 2.722-2.16 1.523 0 2.44.654 2.885.964l-1.176 1.086c-.607-.47-1.176-.64-1.622-.64-.742 0-.914.294-.914.48 0 .37.41.443 1.027.555 1.3.234 2.81.58 2.81 2.112 0 1.518-1.536 2.258-3.058 2.258-1.794 0-2.723-.863-3.13-1.246l1.2-1.088zM155.435 5.11c-.038-.27-.087-.63-.36-.914-.233-.234-.593-.358-.927-.358-.458 0-.78.222-.965.42-.26.284-.322.58-.384.852h2.635zm1.894 2.382c-.225.335-.448.655-.78.964-.557.518-1.4.914-2.44.914-1.917 0-3.266-1.223-3.266-3.334 0-1.556.767-3.555 3.316-3.555.385 0 1.498.037 2.326.927.843.9.89 2.16.917 2.888h-4.616c-.013.803.444 1.605 1.473 1.605 1.04 0 1.398-.68 1.634-1.135l1.435.727zM158.74.825h1.893V2.84h1.25V4h-1.263v2.9c-.013.395-.013.73.496.73l.68-.025v1.48c-.408.063-.656.1-1.003.1-.656 0-1.374-.037-1.782-.63-.26-.383-.27-.84-.27-1.457v-3.11h-.94V2.825h.94v-2z"/><path fill="#010202" d="M162.377.825h1.894V2.84h1.25V4h-1.263v2.9c-.01.395-.01.73.496.73l.68-.025v1.48c-.407.063-.655.1-1.002.1-.655 0-1.373-.037-1.78-.63-.26-.383-.273-.84-.273-1.457v-3.11h-.94V2.825h.94v-2z"/><g transform="translate(165.245 1.95)"><mask id="b" fill="#fff"><use xlink:href="#a"/></mask><path fill="#010202" d="M1.61 5.01c.52.508 1.164.89 1.882.89.46 0 1.152-.148 1.152-.63 0-.222-.136-.31-.25-.37-.282-.15-.728-.185-1.1-.248-.284-.048-.582-.11-.866-.197-.395-.11-.792-.27-1.077-.556-.283-.284-.48-.728-.48-1.21 0-1.062.916-2.16 2.72-2.16 1.524 0 2.44.653 2.885.962L5.3 2.578c-.608-.47-1.177-.64-1.622-.64-.743 0-.915.295-.915.48 0 .37.408.444 1.026.555 1.3.235 2.808.58 2.808 2.113 0 1.518-1.534 2.258-3.055 2.258C1.748 7.344.82 6.48.41 6.097l1.2-1.086z" mask="url(#b)"/></g><mask id="d" fill="#fff"><use xlink:href="#c"/></mask><path fill="#010202" d="M85.358 22.86h2.178v-8.72h-2.178M91.186 16.994c.185-.198.31-.345.644-.507.297-.123.718-.234 1.175-.234.384 0 .816.074 1.152.26.68.357.853.938.853 1.938v4.41h-1.893v-3.632c0-.58-.012-.79-.087-.963-.15-.346-.482-.493-.853-.493-1.003 0-1.003.803-1.003 1.605v3.482H89.27v-6.435h1.916v.57zM97.05 20.686c.52.506 1.165.888 1.882.888.46 0 1.152-.148 1.152-.63 0-.22-.137-.308-.248-.37-.285-.15-.73-.185-1.1-.246-.286-.05-.583-.112-.867-.198-.397-.112-.794-.272-1.078-.556-.285-.284-.483-.727-.483-1.21 0-1.06.915-2.16 2.72-2.16 1.524 0 2.44.654 2.886.963l-1.177 1.086c-.607-.47-1.177-.642-1.622-.642-.742 0-.915.297-.915.482 0 .37.41.445 1.028.556 1.3.235 2.81.58 2.81 2.112 0 1.52-1.535 2.26-3.058 2.26-1.794 0-2.722-.865-3.13-1.25l1.2-1.084zM103.4 14.55h1.893v2.012h1.25v1.16h-1.262v2.902c-.01.395-.01.73.496.73l.68-.027v1.482c-.408.06-.656.098-1.002.098-.656 0-1.374-.038-1.782-.63-.26-.383-.272-.84-.272-1.456V17.71h-.94v-1.16h.94v-2zM107.57 22.86h1.88V16.4h-1.88v6.46zm0-7.262h1.88V14.13h-1.88v1.468zM111.393 14.55h1.894v2.012h1.25v1.16h-1.263v2.902c-.01.395-.01.73.495.73l.68-.027v1.482c-.41.06-.655.098-1.002.098-.656 0-1.374-.038-1.783-.63-.258-.383-.272-.84-.272-1.456V17.71h-.94v-1.16h.94v-2zM119.4 16.413h1.905v6.446H119.4v-.62c-.186.21-.3.335-.645.508-.383.198-.802.295-1.223.295-.42 0-1.202-.06-1.647-.678-.334-.47-.395-.853-.395-1.9v-4.052h1.917v4c0 .285 0 .57.148.767.112.148.372.32.755.32.112 0 .372 0 .657-.16.407-.248.42-.57.433-.914v-4.013zM123.248 14.55h1.894v2.012h1.25v1.16h-1.263v2.902c-.014.395-.014.73.494.73l.68-.027v1.482c-.408.06-.655.098-1.002.098-.655 0-1.374-.038-1.782-.63-.26-.383-.272-.84-.272-1.456V17.71h-.94v-1.16h.94v-2zM131.54 18.834c-.038-.272-.088-.63-.36-.914-.236-.235-.594-.358-.928-.358-.458 0-.78.222-.966.42-.26.283-.322.58-.383.852h2.636zm1.893 2.382c-.223.334-.447.654-.78.963-.558.517-1.4.913-2.438.913-1.918 0-3.268-1.223-3.268-3.334 0-1.556.77-3.556 3.317-3.556.384 0 1.498.037 2.326.925.843.9.89 2.16.916 2.888h-4.616c-.012.804.446 1.606 1.473 1.606 1.04 0 1.4-.68 1.635-1.136l1.435.728zM139.755 18.352c-.235.37-.322.814-.322 1.26 0 1.024.496 1.925 1.56 1.925 1.026 0 1.535-.827 1.535-1.84 0-.715-.175-1.27-.533-1.616-.396-.37-.84-.382-1.114-.358-.544.038-.865.222-1.125.63m4.703 1.272c0 1.63-.94 3.42-3.465 3.42-1.82 0-3.478-1.037-3.478-3.42 0-1.977 1.25-3.544 3.726-3.408 2.636.148 3.218 2.234 3.218 3.408M146.004 15.77c0-.32.025-.752.272-1.097.236-.322.768-.655 1.66-.655.382 0 .767.062 1.137.11v1.42h-.458c-.717 0-.755.15-.742 1.014h1.275v1.16h-1.263v5.137h-1.894V17.72h-1.014v-1.16h1.028v-.79zM82.964 27.986h6.732v1.73H87.43v7h-2.188v-7h-2.278M93.807 32.69c-.037-.27-.087-.63-.358-.913-.237-.235-.596-.36-.93-.36-.457 0-.78.224-.965.42-.26.286-.32.582-.384.854h2.637zm1.894 2.383c-.223.334-.445.654-.78.964-.556.518-1.397.914-2.436.914-1.92 0-3.268-1.223-3.268-3.333 0-1.556.767-3.556 3.315-3.556.387 0 1.5.038 2.33.928.84.9.89 2.16.915 2.887H91.16c-.014.803.444 1.605 1.472 1.605 1.04 0 1.398-.678 1.633-1.134l1.436.727zM102.52 35.197c-.237.37-.496.778-1.016 1.148-.495.345-1.126.58-1.856.58-1.237 0-3.205-.74-3.205-3.37 0-1.877 1.088-3.458 3.242-3.458.718 0 1.943.198 2.76 1.544l-1.412.804c-.11-.236-.235-.458-.543-.68-.187-.123-.422-.222-.72-.222-1.026 0-1.373 1.173-1.373 1.95 0 .854.422 1.927 1.436 1.927.1 0 .57 0 .965-.446.16-.184.224-.332.285-.52l1.436.743zM104.724 27.986v2.963c.272-.272.83-.852 1.855-.852.47 0 .99.136 1.374.457.57.48.668 1.086.668 1.925v4.235h-1.894v-3.37c0-.52-.01-.766-.086-.988-.186-.58-.693-.643-.89-.643-.335 0-.62.16-.78.372-.248.333-.248.864-.248 1.42v3.21h-1.906v-8.73h1.906zM112.235 30.85c.185-.197.31-.344.643-.506.298-.123.718-.234 1.176-.234.384 0 .817.073 1.15.26.68.357.855.938.855 1.937v4.41h-1.894v-3.632c0-.58-.013-.79-.087-.96-.15-.348-.484-.496-.854-.496-1.004 0-1.004.8-1.004 1.604v3.482h-1.905v-6.432h1.918v.567zM119.56 32.21c-.235.37-.32.814-.32 1.258 0 1.026.494 1.926 1.56 1.926 1.025 0 1.532-.827 1.532-1.84 0-.716-.173-1.272-.532-1.616-.395-.37-.84-.384-1.113-.36-.544.04-.866.223-1.126.63m4.703 1.273c0 1.63-.94 3.42-3.464 3.42-1.822 0-3.48-1.036-3.48-3.42 0-1.975 1.25-3.542 3.726-3.406 2.635.148 3.217 2.234 3.217 3.407M125.5 36.715h1.905v-8.717H125.5M130.91 32.21c-.237.37-.324.814-.324 1.258 0 1.026.496 1.926 1.56 1.926 1.026 0 1.534-.827 1.534-1.84 0-.716-.173-1.272-.533-1.616-.395-.37-.84-.384-1.114-.36-.544.04-.864.223-1.124.63m4.7 1.273c0 1.63-.94 3.42-3.463 3.42-1.82 0-3.48-1.036-3.48-3.42 0-1.975 1.25-3.542 3.726-3.406 2.636.148 3.218 2.234 3.218 3.407M138.357 33.308c0 .543.037 1.667 1.213 1.667.966 0 1.187-.753 1.187-1.667 0-.31-.023-.95-.234-1.26-.148-.233-.495-.494-1.04-.468-.902.037-1.126.813-1.126 1.728zm2.414 2.556c-.37.246-.828.543-1.707.543-.532 0-1.053-.137-1.473-.42-.866-.555-1.2-1.556-1.2-2.666 0-1.296.607-3.16 2.747-3.16.99 0 1.447.43 1.733.703v-.604h1.782v6.197c-.025.703-.05 1.53-.99 2.074-.657.396-1.622.494-2.203.494-1.288 0-2.13-.443-2.476-.802-.508-.506-.495-1.16-.495-1.507h1.966c.025.284.05.692.558.926.123.065.31.124.606.124 1.15 0 1.15-.678 1.15-1.21v-.69zM149.668 30.27l-2.278 6.964c-.147.42-.284.816-.606 1.174-.445.48-.88.505-1.373.518h-1.373V37.42h.67c.308-.013.79-.013.79-.47 0-.16-.048-.32-.086-.456l-1.93-6.223h2.03l1.063 4.618 1.066-4.617h2.028z" mask="url(#d)"/><path fill="#A90533" d="M37.51 36.7h7.66V11.96h-7.66" mask="url(#d)"/></g></g></svg>